<mxfile host="Electron" modified="2024-01-07T09:16:17.637Z" agent="Mozilla/5.0 (Windows NT 10.0; Win64; x64) AppleWebKit/537.36 (KHTML, like Gecko) draw.io/22.1.2 Chrome/114.0.5735.289 Electron/25.9.4 Safari/537.36" etag="bxGcK1BY5h2LKg9j5OKr" version="22.1.2" type="device">
  <diagram name="第 1 页" id="OdeV7MYnzkXa8fMw63dk">
    <mxGraphModel dx="2711" dy="2285" grid="1" gridSize="10" guides="1" tooltips="1" connect="1" arrows="1" fold="1" page="1" pageScale="1" pageWidth="827" pageHeight="1169" math="0" shadow="0">
      <root>
        <mxCell id="0" />
        <mxCell id="1" parent="0" />
        <mxCell id="NcJ_m5KxNfroG4PjKvaC-3" value="" style="rounded=0;whiteSpace=wrap;html=1;" parent="1" vertex="1">
          <mxGeometry x="-120" y="-840" width="1740" height="3040" as="geometry" />
        </mxCell>
        <mxCell id="woXVaQnbZN-dzvyPOgUp-214" value="" style="rounded=1;whiteSpace=wrap;html=1;fillColor=none;strokeColor=#6c8ebf;dashed=1;strokeWidth=5;" parent="1" vertex="1">
          <mxGeometry x="760" y="960" width="640" height="1040" as="geometry" />
        </mxCell>
        <mxCell id="woXVaQnbZN-dzvyPOgUp-212" value="" style="rounded=1;whiteSpace=wrap;html=1;fillColor=none;strokeColor=#6c8ebf;dashed=1;strokeWidth=5;" parent="1" vertex="1">
          <mxGeometry x="120" y="960" width="610" height="1040" as="geometry" />
        </mxCell>
        <mxCell id="woXVaQnbZN-dzvyPOgUp-154" value="" style="rounded=1;whiteSpace=wrap;html=1;fillColor=none;dashed=1;strokeColor=#d6b656;strokeWidth=5;" parent="1" vertex="1">
          <mxGeometry x="160" y="1000" width="1200" height="440" as="geometry" />
        </mxCell>
        <mxCell id="woXVaQnbZN-dzvyPOgUp-37" value="" style="rounded=1;whiteSpace=wrap;html=1;" parent="1" vertex="1">
          <mxGeometry x="780" y="200" width="520" height="480" as="geometry" />
        </mxCell>
        <mxCell id="woXVaQnbZN-dzvyPOgUp-34" value="" style="rounded=1;whiteSpace=wrap;html=1;" parent="1" vertex="1">
          <mxGeometry x="240" y="200" width="460" height="480" as="geometry" />
        </mxCell>
        <mxCell id="fIth8sYgdClS8fjmsM_W-36" style="edgeStyle=orthogonalEdgeStyle;rounded=0;orthogonalLoop=1;jettySize=auto;html=1;exitX=1;exitY=0.5;exitDx=0;exitDy=0;entryX=0;entryY=0.5;entryDx=0;entryDy=0;" parent="1" source="fIth8sYgdClS8fjmsM_W-15" target="fIth8sYgdClS8fjmsM_W-16" edge="1">
          <mxGeometry relative="1" as="geometry" />
        </mxCell>
        <mxCell id="woXVaQnbZN-dzvyPOgUp-19" style="edgeStyle=orthogonalEdgeStyle;rounded=0;orthogonalLoop=1;jettySize=auto;html=1;exitX=0.5;exitY=1;exitDx=0;exitDy=0;entryX=0.5;entryY=0;entryDx=0;entryDy=0;" parent="1" source="fIth8sYgdClS8fjmsM_W-15" target="woXVaQnbZN-dzvyPOgUp-16" edge="1">
          <mxGeometry relative="1" as="geometry" />
        </mxCell>
        <mxCell id="fIth8sYgdClS8fjmsM_W-15" value="&lt;font style=&quot;font-size: 20px;&quot; face=&quot;Comic Sans MS&quot;&gt;Forward1&lt;/font&gt;" style="rounded=1;whiteSpace=wrap;html=1;" parent="1" vertex="1">
          <mxGeometry x="370" y="260" width="120" height="60" as="geometry" />
        </mxCell>
        <mxCell id="woXVaQnbZN-dzvyPOgUp-17" style="edgeStyle=orthogonalEdgeStyle;rounded=0;orthogonalLoop=1;jettySize=auto;html=1;exitX=0.5;exitY=1;exitDx=0;exitDy=0;entryX=0.5;entryY=0;entryDx=0;entryDy=0;" parent="1" source="fIth8sYgdClS8fjmsM_W-16" target="woXVaQnbZN-dzvyPOgUp-15" edge="1">
          <mxGeometry relative="1" as="geometry" />
        </mxCell>
        <mxCell id="woXVaQnbZN-dzvyPOgUp-38" style="edgeStyle=orthogonalEdgeStyle;rounded=0;orthogonalLoop=1;jettySize=auto;html=1;exitX=1;exitY=0.5;exitDx=0;exitDy=0;" parent="1" source="fIth8sYgdClS8fjmsM_W-16" target="woXVaQnbZN-dzvyPOgUp-2" edge="1">
          <mxGeometry relative="1" as="geometry" />
        </mxCell>
        <mxCell id="fIth8sYgdClS8fjmsM_W-16" value="&lt;font style=&quot;font-size: 20px;&quot; face=&quot;Comic Sans MS&quot;&gt;Forward2&lt;/font&gt;" style="rounded=1;whiteSpace=wrap;html=1;" parent="1" vertex="1">
          <mxGeometry x="520" y="260" width="120" height="60" as="geometry" />
        </mxCell>
        <mxCell id="woXVaQnbZN-dzvyPOgUp-10" style="edgeStyle=orthogonalEdgeStyle;rounded=0;orthogonalLoop=1;jettySize=auto;html=1;exitX=0.5;exitY=1;exitDx=0;exitDy=0;entryX=0.5;entryY=0;entryDx=0;entryDy=0;" parent="1" source="fIth8sYgdClS8fjmsM_W-17" target="woXVaQnbZN-dzvyPOgUp-9" edge="1">
          <mxGeometry relative="1" as="geometry" />
        </mxCell>
        <mxCell id="fIth8sYgdClS8fjmsM_W-17" value="&lt;font style=&quot;font-size: 20px;&quot; face=&quot;Comic Sans MS&quot;&gt;Forward4&lt;/font&gt;" style="rounded=1;whiteSpace=wrap;html=1;" parent="1" vertex="1">
          <mxGeometry x="980" y="260" width="120" height="60" as="geometry" />
        </mxCell>
        <mxCell id="fIth8sYgdClS8fjmsM_W-49" style="edgeStyle=orthogonalEdgeStyle;rounded=0;orthogonalLoop=1;jettySize=auto;html=1;exitX=0.5;exitY=1;exitDx=0;exitDy=0;entryX=0.5;entryY=0;entryDx=0;entryDy=0;" parent="1" source="fIth8sYgdClS8fjmsM_W-18" target="fIth8sYgdClS8fjmsM_W-47" edge="1">
          <mxGeometry relative="1" as="geometry">
            <mxPoint x="1040" y="600" as="targetPoint" />
          </mxGeometry>
        </mxCell>
        <mxCell id="woXVaQnbZN-dzvyPOgUp-6" style="edgeStyle=orthogonalEdgeStyle;rounded=0;orthogonalLoop=1;jettySize=auto;html=1;exitX=0;exitY=0.5;exitDx=0;exitDy=0;entryX=1;entryY=0.5;entryDx=0;entryDy=0;" parent="1" source="fIth8sYgdClS8fjmsM_W-18" target="woXVaQnbZN-dzvyPOgUp-3" edge="1">
          <mxGeometry relative="1" as="geometry" />
        </mxCell>
        <mxCell id="fIth8sYgdClS8fjmsM_W-18" value="&lt;font style=&quot;font-size: 20px;&quot; face=&quot;Comic Sans MS&quot;&gt;Backward4&lt;/font&gt;" style="rounded=1;whiteSpace=wrap;html=1;" parent="1" vertex="1">
          <mxGeometry x="980" y="480" width="120" height="60" as="geometry" />
        </mxCell>
        <mxCell id="fIth8sYgdClS8fjmsM_W-42" style="edgeStyle=orthogonalEdgeStyle;rounded=0;orthogonalLoop=1;jettySize=auto;html=1;exitX=0;exitY=0.5;exitDx=0;exitDy=0;" parent="1" source="fIth8sYgdClS8fjmsM_W-19" target="fIth8sYgdClS8fjmsM_W-20" edge="1">
          <mxGeometry relative="1" as="geometry" />
        </mxCell>
        <mxCell id="fIth8sYgdClS8fjmsM_W-48" style="edgeStyle=orthogonalEdgeStyle;rounded=0;orthogonalLoop=1;jettySize=auto;html=1;exitX=0.5;exitY=1;exitDx=0;exitDy=0;entryX=0.5;entryY=0;entryDx=0;entryDy=0;" parent="1" source="fIth8sYgdClS8fjmsM_W-19" target="fIth8sYgdClS8fjmsM_W-46" edge="1">
          <mxGeometry relative="1" as="geometry" />
        </mxCell>
        <mxCell id="fIth8sYgdClS8fjmsM_W-19" value="&lt;font style=&quot;font-size: 20px;&quot; face=&quot;Comic Sans MS&quot;&gt;Backward2&lt;/font&gt;" style="rounded=1;whiteSpace=wrap;html=1;" parent="1" vertex="1">
          <mxGeometry x="520" y="480" width="120" height="60" as="geometry" />
        </mxCell>
        <mxCell id="fIth8sYgdClS8fjmsM_W-43" style="edgeStyle=orthogonalEdgeStyle;rounded=0;orthogonalLoop=1;jettySize=auto;html=1;exitX=0.5;exitY=1;exitDx=0;exitDy=0;entryX=0.5;entryY=0;entryDx=0;entryDy=0;" parent="1" source="fIth8sYgdClS8fjmsM_W-20" target="fIth8sYgdClS8fjmsM_W-45" edge="1">
          <mxGeometry relative="1" as="geometry">
            <mxPoint x="430" y="570" as="targetPoint" />
          </mxGeometry>
        </mxCell>
        <mxCell id="fIth8sYgdClS8fjmsM_W-20" value="&lt;font style=&quot;font-size: 20px;&quot; face=&quot;Comic Sans MS&quot;&gt;Backward1&lt;/font&gt;" style="rounded=1;whiteSpace=wrap;html=1;" parent="1" vertex="1">
          <mxGeometry x="370" y="480" width="120" height="60" as="geometry" />
        </mxCell>
        <mxCell id="fIth8sYgdClS8fjmsM_W-21" value="&lt;font style=&quot;font-size: 20px;&quot; face=&quot;Comic Sans MS&quot;&gt;loss&lt;br&gt;&lt;/font&gt;" style="rounded=1;whiteSpace=wrap;html=1;" parent="1" vertex="1">
          <mxGeometry x="1150" y="410" width="120" height="60" as="geometry" />
        </mxCell>
        <mxCell id="fIth8sYgdClS8fjmsM_W-24" value="" style="endArrow=classic;html=1;rounded=0;entryX=0;entryY=0.5;entryDx=0;entryDy=0;exitX=1;exitY=0.5;exitDx=0;exitDy=0;" parent="1" source="fIth8sYgdClS8fjmsM_W-17" target="fIth8sYgdClS8fjmsM_W-21" edge="1">
          <mxGeometry width="50" height="50" relative="1" as="geometry">
            <mxPoint x="1060" y="520" as="sourcePoint" />
            <mxPoint x="1110" y="470" as="targetPoint" />
          </mxGeometry>
        </mxCell>
        <mxCell id="fIth8sYgdClS8fjmsM_W-25" value="" style="endArrow=classic;html=1;rounded=0;entryX=1;entryY=0.5;entryDx=0;entryDy=0;exitX=-0.002;exitY=0.626;exitDx=0;exitDy=0;exitPerimeter=0;" parent="1" source="fIth8sYgdClS8fjmsM_W-21" target="fIth8sYgdClS8fjmsM_W-18" edge="1">
          <mxGeometry width="50" height="50" relative="1" as="geometry">
            <mxPoint x="1180" y="540" as="sourcePoint" />
            <mxPoint x="1160" y="440" as="targetPoint" />
          </mxGeometry>
        </mxCell>
        <mxCell id="fIth8sYgdClS8fjmsM_W-45" value="&lt;font style=&quot;font-size: 15px;&quot;&gt;&lt;span style=&quot;font-size: 15px;&quot;&gt;W1.grad&lt;/span&gt;&lt;/font&gt;" style="rounded=1;whiteSpace=wrap;html=1;fontFamily=Comic Sans MS;fontSize=15;strokeColor=none;" parent="1" vertex="1">
          <mxGeometry x="370" y="580" width="120" height="40" as="geometry" />
        </mxCell>
        <mxCell id="fIth8sYgdClS8fjmsM_W-46" value="&lt;font style=&quot;font-size: 15px;&quot;&gt;&lt;span style=&quot;font-size: 15px;&quot;&gt;W2.grad&lt;/span&gt;&lt;/font&gt;" style="rounded=1;whiteSpace=wrap;html=1;fontFamily=Comic Sans MS;fontSize=15;strokeColor=none;" parent="1" vertex="1">
          <mxGeometry x="520" y="585" width="120" height="40" as="geometry" />
        </mxCell>
        <mxCell id="fIth8sYgdClS8fjmsM_W-47" value="&lt;font style=&quot;font-size: 15px;&quot;&gt;&lt;span style=&quot;font-size: 15px;&quot;&gt;W4.grad&lt;/span&gt;&lt;/font&gt;" style="rounded=1;whiteSpace=wrap;html=1;fontFamily=Comic Sans MS;fontSize=15;strokeColor=none;" parent="1" vertex="1">
          <mxGeometry x="980" y="585" width="120" height="40" as="geometry" />
        </mxCell>
        <mxCell id="fIth8sYgdClS8fjmsM_W-52" value="GPU1" style="text;html=1;strokeColor=none;fillColor=none;align=center;verticalAlign=middle;whiteSpace=wrap;rounded=0;fontFamily=Comic Sans MS;fontSize=20;" parent="1" vertex="1">
          <mxGeometry x="430" y="650" width="60" height="30" as="geometry" />
        </mxCell>
        <mxCell id="woXVaQnbZN-dzvyPOgUp-5" style="edgeStyle=orthogonalEdgeStyle;rounded=0;orthogonalLoop=1;jettySize=auto;html=1;exitX=1;exitY=0.5;exitDx=0;exitDy=0;entryX=0;entryY=0.5;entryDx=0;entryDy=0;" parent="1" source="woXVaQnbZN-dzvyPOgUp-2" target="fIth8sYgdClS8fjmsM_W-17" edge="1">
          <mxGeometry relative="1" as="geometry" />
        </mxCell>
        <mxCell id="woXVaQnbZN-dzvyPOgUp-13" style="edgeStyle=orthogonalEdgeStyle;rounded=0;orthogonalLoop=1;jettySize=auto;html=1;exitX=0.5;exitY=1;exitDx=0;exitDy=0;" parent="1" source="woXVaQnbZN-dzvyPOgUp-2" target="woXVaQnbZN-dzvyPOgUp-12" edge="1">
          <mxGeometry relative="1" as="geometry" />
        </mxCell>
        <mxCell id="woXVaQnbZN-dzvyPOgUp-2" value="&lt;font style=&quot;font-size: 20px;&quot; face=&quot;Comic Sans MS&quot;&gt;Forward2&lt;/font&gt;" style="rounded=1;whiteSpace=wrap;html=1;" parent="1" vertex="1">
          <mxGeometry x="830" y="260" width="120" height="60" as="geometry" />
        </mxCell>
        <mxCell id="woXVaQnbZN-dzvyPOgUp-8" style="edgeStyle=orthogonalEdgeStyle;rounded=0;orthogonalLoop=1;jettySize=auto;html=1;exitX=0.5;exitY=1;exitDx=0;exitDy=0;entryX=0.5;entryY=0;entryDx=0;entryDy=0;" parent="1" source="woXVaQnbZN-dzvyPOgUp-3" target="woXVaQnbZN-dzvyPOgUp-7" edge="1">
          <mxGeometry relative="1" as="geometry" />
        </mxCell>
        <mxCell id="woXVaQnbZN-dzvyPOgUp-39" style="edgeStyle=orthogonalEdgeStyle;rounded=0;orthogonalLoop=1;jettySize=auto;html=1;exitX=0;exitY=0.5;exitDx=0;exitDy=0;entryX=1;entryY=0.5;entryDx=0;entryDy=0;" parent="1" source="woXVaQnbZN-dzvyPOgUp-3" target="fIth8sYgdClS8fjmsM_W-19" edge="1">
          <mxGeometry relative="1" as="geometry" />
        </mxCell>
        <mxCell id="woXVaQnbZN-dzvyPOgUp-3" value="&lt;font style=&quot;font-size: 20px;&quot; face=&quot;Comic Sans MS&quot;&gt;Backward2&lt;/font&gt;" style="rounded=1;whiteSpace=wrap;html=1;" parent="1" vertex="1">
          <mxGeometry x="830" y="480" width="120" height="60" as="geometry" />
        </mxCell>
        <mxCell id="woXVaQnbZN-dzvyPOgUp-7" value="&lt;font style=&quot;font-size: 15px;&quot;&gt;&lt;span style=&quot;font-size: 15px;&quot;&gt;W3.grad&lt;/span&gt;&lt;/font&gt;" style="rounded=1;whiteSpace=wrap;html=1;fontFamily=Comic Sans MS;fontSize=15;strokeColor=none;" parent="1" vertex="1">
          <mxGeometry x="830" y="585" width="120" height="40" as="geometry" />
        </mxCell>
        <mxCell id="woXVaQnbZN-dzvyPOgUp-11" style="edgeStyle=orthogonalEdgeStyle;rounded=0;orthogonalLoop=1;jettySize=auto;html=1;exitX=0.5;exitY=1;exitDx=0;exitDy=0;" parent="1" source="woXVaQnbZN-dzvyPOgUp-9" target="fIth8sYgdClS8fjmsM_W-18" edge="1">
          <mxGeometry relative="1" as="geometry" />
        </mxCell>
        <mxCell id="woXVaQnbZN-dzvyPOgUp-9" value="&lt;font style=&quot;font-size: 20px;&quot;&gt;cache&lt;/font&gt;" style="ellipse;whiteSpace=wrap;html=1;aspect=fixed;rounded=1;" parent="1" vertex="1">
          <mxGeometry x="1010" y="370" width="60" height="60" as="geometry" />
        </mxCell>
        <mxCell id="woXVaQnbZN-dzvyPOgUp-14" style="edgeStyle=orthogonalEdgeStyle;rounded=0;orthogonalLoop=1;jettySize=auto;html=1;exitX=0.5;exitY=1;exitDx=0;exitDy=0;" parent="1" source="woXVaQnbZN-dzvyPOgUp-12" target="woXVaQnbZN-dzvyPOgUp-3" edge="1">
          <mxGeometry relative="1" as="geometry" />
        </mxCell>
        <mxCell id="woXVaQnbZN-dzvyPOgUp-12" value="&lt;font style=&quot;font-size: 20px;&quot;&gt;cache&lt;/font&gt;" style="ellipse;whiteSpace=wrap;html=1;aspect=fixed;rounded=1;" parent="1" vertex="1">
          <mxGeometry x="860" y="370" width="60" height="60" as="geometry" />
        </mxCell>
        <mxCell id="woXVaQnbZN-dzvyPOgUp-18" style="edgeStyle=orthogonalEdgeStyle;rounded=0;orthogonalLoop=1;jettySize=auto;html=1;exitX=0.5;exitY=1;exitDx=0;exitDy=0;entryX=0.5;entryY=0;entryDx=0;entryDy=0;" parent="1" source="woXVaQnbZN-dzvyPOgUp-15" target="fIth8sYgdClS8fjmsM_W-19" edge="1">
          <mxGeometry relative="1" as="geometry" />
        </mxCell>
        <mxCell id="woXVaQnbZN-dzvyPOgUp-15" value="&lt;font style=&quot;font-size: 20px;&quot;&gt;cache&lt;/font&gt;" style="ellipse;whiteSpace=wrap;html=1;aspect=fixed;rounded=1;" parent="1" vertex="1">
          <mxGeometry x="550" y="370" width="60" height="60" as="geometry" />
        </mxCell>
        <mxCell id="woXVaQnbZN-dzvyPOgUp-20" style="edgeStyle=orthogonalEdgeStyle;rounded=0;orthogonalLoop=1;jettySize=auto;html=1;exitX=0.5;exitY=1;exitDx=0;exitDy=0;entryX=0.5;entryY=0;entryDx=0;entryDy=0;" parent="1" source="woXVaQnbZN-dzvyPOgUp-16" target="fIth8sYgdClS8fjmsM_W-20" edge="1">
          <mxGeometry relative="1" as="geometry" />
        </mxCell>
        <mxCell id="woXVaQnbZN-dzvyPOgUp-16" value="&lt;font style=&quot;font-size: 20px;&quot;&gt;cache&lt;/font&gt;" style="ellipse;whiteSpace=wrap;html=1;aspect=fixed;rounded=1;" parent="1" vertex="1">
          <mxGeometry x="400" y="370" width="60" height="60" as="geometry" />
        </mxCell>
        <mxCell id="woXVaQnbZN-dzvyPOgUp-22" style="edgeStyle=orthogonalEdgeStyle;rounded=0;orthogonalLoop=1;jettySize=auto;html=1;exitX=0.5;exitY=1;exitDx=0;exitDy=0;entryX=0.75;entryY=0;entryDx=0;entryDy=0;curved=1;" parent="1" source="woXVaQnbZN-dzvyPOgUp-21" target="fIth8sYgdClS8fjmsM_W-20" edge="1">
          <mxGeometry relative="1" as="geometry" />
        </mxCell>
        <mxCell id="woXVaQnbZN-dzvyPOgUp-21" value="w1" style="rounded=1;whiteSpace=wrap;html=1;fontFamily=Comic Sans MS;fontSize=15;strokeColor=none;" parent="1" vertex="1">
          <mxGeometry x="470" y="440" width="70" height="10" as="geometry" />
        </mxCell>
        <mxCell id="woXVaQnbZN-dzvyPOgUp-23" style="edgeStyle=orthogonalEdgeStyle;rounded=0;orthogonalLoop=1;jettySize=auto;html=1;exitX=0.5;exitY=1;exitDx=0;exitDy=0;entryX=0.75;entryY=0;entryDx=0;entryDy=0;curved=1;" parent="1" source="woXVaQnbZN-dzvyPOgUp-24" edge="1">
          <mxGeometry relative="1" as="geometry">
            <mxPoint x="620" y="480" as="targetPoint" />
          </mxGeometry>
        </mxCell>
        <mxCell id="woXVaQnbZN-dzvyPOgUp-24" value="w2" style="rounded=1;whiteSpace=wrap;html=1;fontFamily=Comic Sans MS;fontSize=15;strokeColor=none;" parent="1" vertex="1">
          <mxGeometry x="630" y="440" width="70" height="10" as="geometry" />
        </mxCell>
        <mxCell id="woXVaQnbZN-dzvyPOgUp-25" style="edgeStyle=orthogonalEdgeStyle;rounded=0;orthogonalLoop=1;jettySize=auto;html=1;exitX=0.5;exitY=1;exitDx=0;exitDy=0;entryX=0.75;entryY=0;entryDx=0;entryDy=0;curved=1;" parent="1" source="woXVaQnbZN-dzvyPOgUp-26" edge="1">
          <mxGeometry relative="1" as="geometry">
            <mxPoint x="920" y="480" as="targetPoint" />
          </mxGeometry>
        </mxCell>
        <mxCell id="woXVaQnbZN-dzvyPOgUp-26" value="w3" style="rounded=1;whiteSpace=wrap;html=1;fontFamily=Comic Sans MS;fontSize=15;strokeColor=none;" parent="1" vertex="1">
          <mxGeometry x="930" y="440" width="70" height="10" as="geometry" />
        </mxCell>
        <mxCell id="woXVaQnbZN-dzvyPOgUp-27" style="edgeStyle=orthogonalEdgeStyle;rounded=0;orthogonalLoop=1;jettySize=auto;html=1;exitX=0.5;exitY=1;exitDx=0;exitDy=0;entryX=0.75;entryY=0;entryDx=0;entryDy=0;curved=1;" parent="1" source="woXVaQnbZN-dzvyPOgUp-28" edge="1">
          <mxGeometry relative="1" as="geometry">
            <mxPoint x="1060" y="480" as="targetPoint" />
          </mxGeometry>
        </mxCell>
        <mxCell id="woXVaQnbZN-dzvyPOgUp-28" value="w4" style="rounded=1;whiteSpace=wrap;html=1;fontFamily=Comic Sans MS;fontSize=15;strokeColor=none;" parent="1" vertex="1">
          <mxGeometry x="1070" y="440" width="70" height="10" as="geometry" />
        </mxCell>
        <mxCell id="woXVaQnbZN-dzvyPOgUp-30" style="edgeStyle=orthogonalEdgeStyle;rounded=0;orthogonalLoop=1;jettySize=auto;html=1;exitX=1;exitY=0.5;exitDx=0;exitDy=0;entryX=0;entryY=0.5;entryDx=0;entryDy=0;" parent="1" source="woXVaQnbZN-dzvyPOgUp-29" target="fIth8sYgdClS8fjmsM_W-15" edge="1">
          <mxGeometry relative="1" as="geometry" />
        </mxCell>
        <mxCell id="woXVaQnbZN-dzvyPOgUp-29" value="Input" style="text;html=1;strokeColor=none;fillColor=none;align=center;verticalAlign=middle;whiteSpace=wrap;rounded=0;fontFamily=Comic Sans MS;fontSize=20;" parent="1" vertex="1">
          <mxGeometry x="260" y="275" width="60" height="30" as="geometry" />
        </mxCell>
        <mxCell id="woXVaQnbZN-dzvyPOgUp-35" style="edgeStyle=orthogonalEdgeStyle;rounded=0;orthogonalLoop=1;jettySize=auto;html=1;exitX=0.5;exitY=1;exitDx=0;exitDy=0;entryX=0.5;entryY=0;entryDx=0;entryDy=0;" parent="1" source="woXVaQnbZN-dzvyPOgUp-31" target="fIth8sYgdClS8fjmsM_W-21" edge="1">
          <mxGeometry relative="1" as="geometry" />
        </mxCell>
        <mxCell id="woXVaQnbZN-dzvyPOgUp-31" value="Target" style="text;html=1;strokeColor=none;fillColor=none;align=center;verticalAlign=middle;whiteSpace=wrap;rounded=0;fontFamily=Comic Sans MS;fontSize=20;" parent="1" vertex="1">
          <mxGeometry x="1181" y="330" width="59" height="30" as="geometry" />
        </mxCell>
        <mxCell id="woXVaQnbZN-dzvyPOgUp-36" value="MPI Send" style="text;html=1;strokeColor=none;fillColor=none;align=center;verticalAlign=middle;whiteSpace=wrap;rounded=0;fontFamily=Comic Sans MS;fontSize=20;" parent="1" vertex="1">
          <mxGeometry x="670" y="260" width="120" height="30" as="geometry" />
        </mxCell>
        <mxCell id="woXVaQnbZN-dzvyPOgUp-41" value="MPI Send" style="text;html=1;strokeColor=none;fillColor=none;align=center;verticalAlign=middle;whiteSpace=wrap;rounded=0;fontFamily=Comic Sans MS;fontSize=20;" parent="1" vertex="1">
          <mxGeometry x="680" y="510" width="120" height="30" as="geometry" />
        </mxCell>
        <mxCell id="woXVaQnbZN-dzvyPOgUp-42" value="GPU2" style="text;html=1;strokeColor=none;fillColor=none;align=center;verticalAlign=middle;whiteSpace=wrap;rounded=0;fontFamily=Comic Sans MS;fontSize=20;" parent="1" vertex="1">
          <mxGeometry x="1020" y="650" width="60" height="30" as="geometry" />
        </mxCell>
        <mxCell id="woXVaQnbZN-dzvyPOgUp-44" value="" style="rounded=1;whiteSpace=wrap;html=1;" parent="1" vertex="1">
          <mxGeometry x="780" y="1040" width="520" height="360" as="geometry" />
        </mxCell>
        <mxCell id="woXVaQnbZN-dzvyPOgUp-45" value="" style="rounded=1;whiteSpace=wrap;html=1;" parent="1" vertex="1">
          <mxGeometry x="240" y="1040" width="460" height="360" as="geometry" />
        </mxCell>
        <mxCell id="woXVaQnbZN-dzvyPOgUp-46" style="edgeStyle=orthogonalEdgeStyle;rounded=0;orthogonalLoop=1;jettySize=auto;html=1;exitX=1;exitY=0.5;exitDx=0;exitDy=0;entryX=0;entryY=0.5;entryDx=0;entryDy=0;" parent="1" source="woXVaQnbZN-dzvyPOgUp-48" target="woXVaQnbZN-dzvyPOgUp-51" edge="1">
          <mxGeometry relative="1" as="geometry" />
        </mxCell>
        <mxCell id="woXVaQnbZN-dzvyPOgUp-48" value="&lt;font style=&quot;font-size: 20px;&quot; face=&quot;Comic Sans MS&quot;&gt;Forward1&lt;/font&gt;" style="rounded=1;whiteSpace=wrap;html=1;" parent="1" vertex="1">
          <mxGeometry x="355" y="1100" width="120" height="60" as="geometry" />
        </mxCell>
        <mxCell id="woXVaQnbZN-dzvyPOgUp-50" style="edgeStyle=orthogonalEdgeStyle;rounded=0;orthogonalLoop=1;jettySize=auto;html=1;exitX=1;exitY=0.5;exitDx=0;exitDy=0;" parent="1" source="woXVaQnbZN-dzvyPOgUp-51" target="woXVaQnbZN-dzvyPOgUp-71" edge="1">
          <mxGeometry relative="1" as="geometry" />
        </mxCell>
        <mxCell id="woXVaQnbZN-dzvyPOgUp-51" value="&lt;font style=&quot;font-size: 20px;&quot; face=&quot;Comic Sans MS&quot;&gt;Forward2&lt;/font&gt;" style="rounded=1;whiteSpace=wrap;html=1;" parent="1" vertex="1">
          <mxGeometry x="505" y="1100" width="120" height="60" as="geometry" />
        </mxCell>
        <mxCell id="woXVaQnbZN-dzvyPOgUp-52" style="edgeStyle=orthogonalEdgeStyle;rounded=0;orthogonalLoop=1;jettySize=auto;html=1;exitX=0.5;exitY=1;exitDx=0;exitDy=0;entryX=0.5;entryY=0;entryDx=0;entryDy=0;" parent="1" source="woXVaQnbZN-dzvyPOgUp-53" target="woXVaQnbZN-dzvyPOgUp-56" edge="1">
          <mxGeometry relative="1" as="geometry">
            <mxPoint x="1040" y="1210" as="targetPoint" />
          </mxGeometry>
        </mxCell>
        <mxCell id="woXVaQnbZN-dzvyPOgUp-53" value="&lt;font style=&quot;font-size: 20px;&quot; face=&quot;Comic Sans MS&quot;&gt;Forward4&lt;/font&gt;" style="rounded=1;whiteSpace=wrap;html=1;" parent="1" vertex="1">
          <mxGeometry x="965" y="1100" width="120" height="60" as="geometry" />
        </mxCell>
        <mxCell id="woXVaQnbZN-dzvyPOgUp-54" style="edgeStyle=orthogonalEdgeStyle;rounded=0;orthogonalLoop=1;jettySize=auto;html=1;exitX=0.5;exitY=1;exitDx=0;exitDy=0;entryX=0.5;entryY=0;entryDx=0;entryDy=0;" parent="1" source="woXVaQnbZN-dzvyPOgUp-56" target="woXVaQnbZN-dzvyPOgUp-67" edge="1">
          <mxGeometry relative="1" as="geometry">
            <mxPoint x="1040" y="1347" as="targetPoint" />
          </mxGeometry>
        </mxCell>
        <mxCell id="woXVaQnbZN-dzvyPOgUp-55" style="edgeStyle=orthogonalEdgeStyle;rounded=0;orthogonalLoop=1;jettySize=auto;html=1;exitX=0;exitY=0.5;exitDx=0;exitDy=0;entryX=1;entryY=0.5;entryDx=0;entryDy=0;" parent="1" source="woXVaQnbZN-dzvyPOgUp-56" target="woXVaQnbZN-dzvyPOgUp-74" edge="1">
          <mxGeometry relative="1" as="geometry" />
        </mxCell>
        <mxCell id="woXVaQnbZN-dzvyPOgUp-56" value="&lt;font style=&quot;font-size: 20px;&quot; face=&quot;Comic Sans MS&quot;&gt;Backward4&lt;/font&gt;" style="rounded=1;whiteSpace=wrap;html=1;" parent="1" vertex="1">
          <mxGeometry x="965" y="1227" width="120" height="60" as="geometry" />
        </mxCell>
        <mxCell id="woXVaQnbZN-dzvyPOgUp-57" style="edgeStyle=orthogonalEdgeStyle;rounded=0;orthogonalLoop=1;jettySize=auto;html=1;exitX=0;exitY=0.5;exitDx=0;exitDy=0;" parent="1" source="woXVaQnbZN-dzvyPOgUp-59" target="woXVaQnbZN-dzvyPOgUp-61" edge="1">
          <mxGeometry relative="1" as="geometry" />
        </mxCell>
        <mxCell id="woXVaQnbZN-dzvyPOgUp-58" style="edgeStyle=orthogonalEdgeStyle;rounded=0;orthogonalLoop=1;jettySize=auto;html=1;exitX=0.5;exitY=1;exitDx=0;exitDy=0;entryX=0.5;entryY=0;entryDx=0;entryDy=0;" parent="1" source="woXVaQnbZN-dzvyPOgUp-59" target="woXVaQnbZN-dzvyPOgUp-66" edge="1">
          <mxGeometry relative="1" as="geometry" />
        </mxCell>
        <mxCell id="woXVaQnbZN-dzvyPOgUp-59" value="&lt;font style=&quot;font-size: 20px;&quot; face=&quot;Comic Sans MS&quot;&gt;Backward2&lt;/font&gt;" style="rounded=1;whiteSpace=wrap;html=1;" parent="1" vertex="1">
          <mxGeometry x="505" y="1227" width="120" height="60" as="geometry" />
        </mxCell>
        <mxCell id="woXVaQnbZN-dzvyPOgUp-60" style="edgeStyle=orthogonalEdgeStyle;rounded=0;orthogonalLoop=1;jettySize=auto;html=1;exitX=0.5;exitY=1;exitDx=0;exitDy=0;entryX=0.5;entryY=0;entryDx=0;entryDy=0;" parent="1" source="woXVaQnbZN-dzvyPOgUp-61" target="woXVaQnbZN-dzvyPOgUp-65" edge="1">
          <mxGeometry relative="1" as="geometry">
            <mxPoint x="430" y="1317" as="targetPoint" />
          </mxGeometry>
        </mxCell>
        <mxCell id="woXVaQnbZN-dzvyPOgUp-61" value="&lt;font style=&quot;font-size: 20px;&quot; face=&quot;Comic Sans MS&quot;&gt;Backward1&lt;/font&gt;" style="rounded=1;whiteSpace=wrap;html=1;" parent="1" vertex="1">
          <mxGeometry x="355" y="1227" width="120" height="60" as="geometry" />
        </mxCell>
        <mxCell id="woXVaQnbZN-dzvyPOgUp-62" value="&lt;font style=&quot;font-size: 20px;&quot; face=&quot;Comic Sans MS&quot;&gt;loss&lt;br&gt;&lt;/font&gt;" style="rounded=1;whiteSpace=wrap;html=1;" parent="1" vertex="1">
          <mxGeometry x="1140" y="1180" width="120" height="60" as="geometry" />
        </mxCell>
        <mxCell id="woXVaQnbZN-dzvyPOgUp-63" value="" style="endArrow=classic;html=1;rounded=0;entryX=0;entryY=0.5;entryDx=0;entryDy=0;exitX=1;exitY=0.5;exitDx=0;exitDy=0;" parent="1" source="woXVaQnbZN-dzvyPOgUp-53" target="woXVaQnbZN-dzvyPOgUp-62" edge="1">
          <mxGeometry width="50" height="50" relative="1" as="geometry">
            <mxPoint x="1060" y="1360" as="sourcePoint" />
            <mxPoint x="1110" y="1310" as="targetPoint" />
          </mxGeometry>
        </mxCell>
        <mxCell id="woXVaQnbZN-dzvyPOgUp-64" value="" style="endArrow=classic;html=1;rounded=0;entryX=1;entryY=0.5;entryDx=0;entryDy=0;exitX=-0.002;exitY=0.626;exitDx=0;exitDy=0;exitPerimeter=0;" parent="1" source="woXVaQnbZN-dzvyPOgUp-62" target="woXVaQnbZN-dzvyPOgUp-56" edge="1">
          <mxGeometry width="50" height="50" relative="1" as="geometry">
            <mxPoint x="1180" y="1287" as="sourcePoint" />
            <mxPoint x="1160" y="1187" as="targetPoint" />
          </mxGeometry>
        </mxCell>
        <mxCell id="woXVaQnbZN-dzvyPOgUp-65" value="&lt;font style=&quot;font-size: 15px;&quot;&gt;&lt;span style=&quot;font-size: 15px;&quot;&gt;W1.grad&lt;/span&gt;&lt;/font&gt;" style="rounded=1;whiteSpace=wrap;html=1;fontFamily=Comic Sans MS;fontSize=15;strokeColor=none;" parent="1" vertex="1">
          <mxGeometry x="355" y="1327" width="120" height="40" as="geometry" />
        </mxCell>
        <mxCell id="woXVaQnbZN-dzvyPOgUp-66" value="&lt;font style=&quot;font-size: 15px;&quot;&gt;&lt;span style=&quot;font-size: 15px;&quot;&gt;W2.grad&lt;/span&gt;&lt;/font&gt;" style="rounded=1;whiteSpace=wrap;html=1;fontFamily=Comic Sans MS;fontSize=15;strokeColor=none;" parent="1" vertex="1">
          <mxGeometry x="505" y="1332" width="120" height="40" as="geometry" />
        </mxCell>
        <mxCell id="woXVaQnbZN-dzvyPOgUp-67" value="&lt;font style=&quot;font-size: 15px;&quot;&gt;&lt;span style=&quot;font-size: 15px;&quot;&gt;W4.grad&lt;/span&gt;&lt;/font&gt;" style="rounded=1;whiteSpace=wrap;html=1;fontFamily=Comic Sans MS;fontSize=15;strokeColor=none;" parent="1" vertex="1">
          <mxGeometry x="965" y="1332" width="120" height="40" as="geometry" />
        </mxCell>
        <mxCell id="woXVaQnbZN-dzvyPOgUp-68" value="GPU1" style="text;html=1;strokeColor=none;fillColor=none;align=center;verticalAlign=middle;whiteSpace=wrap;rounded=0;fontFamily=Comic Sans MS;fontSize=20;" parent="1" vertex="1">
          <mxGeometry x="280" y="1367" width="60" height="30" as="geometry" />
        </mxCell>
        <mxCell id="woXVaQnbZN-dzvyPOgUp-69" style="edgeStyle=orthogonalEdgeStyle;rounded=0;orthogonalLoop=1;jettySize=auto;html=1;exitX=1;exitY=0.5;exitDx=0;exitDy=0;entryX=0;entryY=0.5;entryDx=0;entryDy=0;" parent="1" source="woXVaQnbZN-dzvyPOgUp-71" target="woXVaQnbZN-dzvyPOgUp-53" edge="1">
          <mxGeometry relative="1" as="geometry" />
        </mxCell>
        <mxCell id="woXVaQnbZN-dzvyPOgUp-70" style="edgeStyle=orthogonalEdgeStyle;rounded=0;orthogonalLoop=1;jettySize=auto;html=1;exitX=0.5;exitY=1;exitDx=0;exitDy=0;entryX=0.5;entryY=0;entryDx=0;entryDy=0;" parent="1" source="woXVaQnbZN-dzvyPOgUp-71" target="woXVaQnbZN-dzvyPOgUp-74" edge="1">
          <mxGeometry relative="1" as="geometry">
            <mxPoint x="890" y="1210" as="targetPoint" />
          </mxGeometry>
        </mxCell>
        <mxCell id="woXVaQnbZN-dzvyPOgUp-71" value="&lt;font style=&quot;font-size: 20px;&quot; face=&quot;Comic Sans MS&quot;&gt;Forward2&lt;/font&gt;" style="rounded=1;whiteSpace=wrap;html=1;" parent="1" vertex="1">
          <mxGeometry x="815" y="1100" width="120" height="60" as="geometry" />
        </mxCell>
        <mxCell id="woXVaQnbZN-dzvyPOgUp-72" style="edgeStyle=orthogonalEdgeStyle;rounded=0;orthogonalLoop=1;jettySize=auto;html=1;exitX=0.5;exitY=1;exitDx=0;exitDy=0;entryX=0.5;entryY=0;entryDx=0;entryDy=0;" parent="1" source="woXVaQnbZN-dzvyPOgUp-74" target="woXVaQnbZN-dzvyPOgUp-75" edge="1">
          <mxGeometry relative="1" as="geometry" />
        </mxCell>
        <mxCell id="woXVaQnbZN-dzvyPOgUp-73" style="edgeStyle=orthogonalEdgeStyle;rounded=0;orthogonalLoop=1;jettySize=auto;html=1;exitX=0;exitY=0.5;exitDx=0;exitDy=0;entryX=1;entryY=0.5;entryDx=0;entryDy=0;" parent="1" source="woXVaQnbZN-dzvyPOgUp-74" target="woXVaQnbZN-dzvyPOgUp-59" edge="1">
          <mxGeometry relative="1" as="geometry" />
        </mxCell>
        <mxCell id="woXVaQnbZN-dzvyPOgUp-74" value="&lt;font style=&quot;font-size: 20px;&quot; face=&quot;Comic Sans MS&quot;&gt;Backward2&lt;/font&gt;" style="rounded=1;whiteSpace=wrap;html=1;" parent="1" vertex="1">
          <mxGeometry x="815" y="1227" width="120" height="60" as="geometry" />
        </mxCell>
        <mxCell id="woXVaQnbZN-dzvyPOgUp-75" value="&lt;font style=&quot;font-size: 15px;&quot;&gt;&lt;span style=&quot;font-size: 15px;&quot;&gt;W3.grad&lt;/span&gt;&lt;/font&gt;" style="rounded=1;whiteSpace=wrap;html=1;fontFamily=Comic Sans MS;fontSize=15;strokeColor=none;" parent="1" vertex="1">
          <mxGeometry x="815" y="1332" width="120" height="40" as="geometry" />
        </mxCell>
        <mxCell id="woXVaQnbZN-dzvyPOgUp-80" style="edgeStyle=orthogonalEdgeStyle;rounded=0;orthogonalLoop=1;jettySize=auto;html=1;exitX=0.5;exitY=1;exitDx=0;exitDy=0;entryX=0.5;entryY=0;entryDx=0;entryDy=0;" parent="1" source="woXVaQnbZN-dzvyPOgUp-51" target="woXVaQnbZN-dzvyPOgUp-59" edge="1">
          <mxGeometry relative="1" as="geometry">
            <mxPoint x="580" y="1270" as="sourcePoint" />
          </mxGeometry>
        </mxCell>
        <mxCell id="woXVaQnbZN-dzvyPOgUp-82" style="edgeStyle=orthogonalEdgeStyle;rounded=0;orthogonalLoop=1;jettySize=auto;html=1;entryX=0.5;entryY=0;entryDx=0;entryDy=0;" parent="1" source="woXVaQnbZN-dzvyPOgUp-48" target="woXVaQnbZN-dzvyPOgUp-61" edge="1">
          <mxGeometry relative="1" as="geometry">
            <mxPoint x="430.0000000000002" y="1270" as="sourcePoint" />
          </mxGeometry>
        </mxCell>
        <mxCell id="woXVaQnbZN-dzvyPOgUp-92" style="edgeStyle=orthogonalEdgeStyle;rounded=0;orthogonalLoop=1;jettySize=auto;html=1;exitX=1;exitY=0.5;exitDx=0;exitDy=0;entryX=0;entryY=0.5;entryDx=0;entryDy=0;" parent="1" source="woXVaQnbZN-dzvyPOgUp-93" target="woXVaQnbZN-dzvyPOgUp-48" edge="1">
          <mxGeometry relative="1" as="geometry" />
        </mxCell>
        <mxCell id="woXVaQnbZN-dzvyPOgUp-93" value="Input" style="text;html=1;strokeColor=none;fillColor=none;align=center;verticalAlign=middle;whiteSpace=wrap;rounded=0;fontFamily=Comic Sans MS;fontSize=20;" parent="1" vertex="1">
          <mxGeometry x="260" y="1115" width="60" height="30" as="geometry" />
        </mxCell>
        <mxCell id="woXVaQnbZN-dzvyPOgUp-94" style="edgeStyle=orthogonalEdgeStyle;rounded=0;orthogonalLoop=1;jettySize=auto;html=1;entryX=0.5;entryY=0;entryDx=0;entryDy=0;exitX=0.5;exitY=1;exitDx=0;exitDy=0;" parent="1" source="woXVaQnbZN-dzvyPOgUp-95" target="woXVaQnbZN-dzvyPOgUp-62" edge="1">
          <mxGeometry relative="1" as="geometry">
            <mxPoint x="1210" y="1167" as="sourcePoint" />
          </mxGeometry>
        </mxCell>
        <mxCell id="woXVaQnbZN-dzvyPOgUp-95" value="Target" style="text;html=1;strokeColor=none;fillColor=none;align=center;verticalAlign=middle;whiteSpace=wrap;rounded=0;fontFamily=Comic Sans MS;fontSize=20;" parent="1" vertex="1">
          <mxGeometry x="1170.5" y="1085" width="59" height="30" as="geometry" />
        </mxCell>
        <mxCell id="woXVaQnbZN-dzvyPOgUp-96" value="MPI Send" style="text;html=1;strokeColor=none;fillColor=none;align=center;verticalAlign=middle;whiteSpace=wrap;rounded=0;fontFamily=Comic Sans MS;fontSize=20;" parent="1" vertex="1">
          <mxGeometry x="670" y="1100" width="120" height="30" as="geometry" />
        </mxCell>
        <mxCell id="woXVaQnbZN-dzvyPOgUp-97" value="MPI Send" style="text;html=1;strokeColor=none;fillColor=none;align=center;verticalAlign=middle;whiteSpace=wrap;rounded=0;fontFamily=Comic Sans MS;fontSize=20;" parent="1" vertex="1">
          <mxGeometry x="680" y="1257" width="120" height="30" as="geometry" />
        </mxCell>
        <mxCell id="woXVaQnbZN-dzvyPOgUp-98" value="GPU2" style="text;html=1;strokeColor=none;fillColor=none;align=center;verticalAlign=middle;whiteSpace=wrap;rounded=0;fontFamily=Comic Sans MS;fontSize=20;" parent="1" vertex="1">
          <mxGeometry x="1200" y="1367" width="60" height="30" as="geometry" />
        </mxCell>
        <mxCell id="woXVaQnbZN-dzvyPOgUp-155" value="" style="rounded=1;whiteSpace=wrap;html=1;fillColor=none;dashed=1;strokeColor=#d6b656;strokeWidth=5;" parent="1" vertex="1">
          <mxGeometry x="160" y="1520" width="1200" height="440" as="geometry" />
        </mxCell>
        <mxCell id="woXVaQnbZN-dzvyPOgUp-158" value="" style="rounded=1;whiteSpace=wrap;html=1;" parent="1" vertex="1">
          <mxGeometry x="780" y="1560" width="520" height="360" as="geometry" />
        </mxCell>
        <mxCell id="woXVaQnbZN-dzvyPOgUp-159" value="" style="rounded=1;whiteSpace=wrap;html=1;" parent="1" vertex="1">
          <mxGeometry x="240" y="1560" width="460" height="360" as="geometry" />
        </mxCell>
        <mxCell id="woXVaQnbZN-dzvyPOgUp-160" style="edgeStyle=orthogonalEdgeStyle;rounded=0;orthogonalLoop=1;jettySize=auto;html=1;exitX=1;exitY=0.5;exitDx=0;exitDy=0;entryX=0;entryY=0.5;entryDx=0;entryDy=0;" parent="1" source="woXVaQnbZN-dzvyPOgUp-161" target="woXVaQnbZN-dzvyPOgUp-163" edge="1">
          <mxGeometry relative="1" as="geometry" />
        </mxCell>
        <mxCell id="woXVaQnbZN-dzvyPOgUp-198" style="edgeStyle=orthogonalEdgeStyle;rounded=0;orthogonalLoop=1;jettySize=auto;html=1;exitX=0.5;exitY=0;exitDx=0;exitDy=0;entryX=0.5;entryY=1;entryDx=0;entryDy=0;" parent="1" source="woXVaQnbZN-dzvyPOgUp-161" target="woXVaQnbZN-dzvyPOgUp-173" edge="1">
          <mxGeometry relative="1" as="geometry" />
        </mxCell>
        <mxCell id="woXVaQnbZN-dzvyPOgUp-161" value="&lt;font style=&quot;font-size: 20px;&quot; face=&quot;Comic Sans MS&quot;&gt;Forward1&lt;/font&gt;" style="rounded=1;whiteSpace=wrap;html=1;" parent="1" vertex="1">
          <mxGeometry x="355" y="1780" width="120" height="60" as="geometry" />
        </mxCell>
        <mxCell id="woXVaQnbZN-dzvyPOgUp-162" style="edgeStyle=orthogonalEdgeStyle;rounded=0;orthogonalLoop=1;jettySize=auto;html=1;exitX=1;exitY=0.5;exitDx=0;exitDy=0;" parent="1" source="woXVaQnbZN-dzvyPOgUp-163" target="woXVaQnbZN-dzvyPOgUp-183" edge="1">
          <mxGeometry relative="1" as="geometry" />
        </mxCell>
        <mxCell id="woXVaQnbZN-dzvyPOgUp-200" style="edgeStyle=orthogonalEdgeStyle;rounded=0;orthogonalLoop=1;jettySize=auto;html=1;exitX=0.5;exitY=0;exitDx=0;exitDy=0;" parent="1" source="woXVaQnbZN-dzvyPOgUp-163" edge="1">
          <mxGeometry relative="1" as="geometry">
            <mxPoint x="565" y="1700" as="targetPoint" />
          </mxGeometry>
        </mxCell>
        <mxCell id="woXVaQnbZN-dzvyPOgUp-163" value="&lt;font style=&quot;font-size: 20px;&quot; face=&quot;Comic Sans MS&quot;&gt;Forward2&lt;/font&gt;" style="rounded=1;whiteSpace=wrap;html=1;" parent="1" vertex="1">
          <mxGeometry x="505" y="1780" width="120" height="60" as="geometry" />
        </mxCell>
        <mxCell id="woXVaQnbZN-dzvyPOgUp-204" style="edgeStyle=orthogonalEdgeStyle;rounded=0;orthogonalLoop=1;jettySize=auto;html=1;exitX=0.5;exitY=0;exitDx=0;exitDy=0;entryX=0.5;entryY=1;entryDx=0;entryDy=0;" parent="1" source="woXVaQnbZN-dzvyPOgUp-165" target="woXVaQnbZN-dzvyPOgUp-168" edge="1">
          <mxGeometry relative="1" as="geometry" />
        </mxCell>
        <mxCell id="woXVaQnbZN-dzvyPOgUp-206" style="rounded=0;orthogonalLoop=1;jettySize=auto;html=1;exitX=1;exitY=0.5;exitDx=0;exitDy=0;entryX=0;entryY=0.5;entryDx=0;entryDy=0;" parent="1" source="woXVaQnbZN-dzvyPOgUp-165" target="woXVaQnbZN-dzvyPOgUp-174" edge="1">
          <mxGeometry relative="1" as="geometry" />
        </mxCell>
        <mxCell id="woXVaQnbZN-dzvyPOgUp-165" value="&lt;font style=&quot;font-size: 20px;&quot; face=&quot;Comic Sans MS&quot;&gt;Forward4&lt;/font&gt;" style="rounded=1;whiteSpace=wrap;html=1;" parent="1" vertex="1">
          <mxGeometry x="965" y="1780" width="120" height="60" as="geometry" />
        </mxCell>
        <mxCell id="woXVaQnbZN-dzvyPOgUp-167" style="edgeStyle=orthogonalEdgeStyle;rounded=0;orthogonalLoop=1;jettySize=auto;html=1;exitX=0;exitY=0.5;exitDx=0;exitDy=0;entryX=1;entryY=0.5;entryDx=0;entryDy=0;" parent="1" source="woXVaQnbZN-dzvyPOgUp-168" target="woXVaQnbZN-dzvyPOgUp-186" edge="1">
          <mxGeometry relative="1" as="geometry" />
        </mxCell>
        <mxCell id="woXVaQnbZN-dzvyPOgUp-205" style="edgeStyle=orthogonalEdgeStyle;rounded=0;orthogonalLoop=1;jettySize=auto;html=1;exitX=0.5;exitY=0;exitDx=0;exitDy=0;entryX=0.5;entryY=1;entryDx=0;entryDy=0;" parent="1" source="woXVaQnbZN-dzvyPOgUp-168" target="woXVaQnbZN-dzvyPOgUp-179" edge="1">
          <mxGeometry relative="1" as="geometry" />
        </mxCell>
        <mxCell id="woXVaQnbZN-dzvyPOgUp-168" value="&lt;font style=&quot;font-size: 20px;&quot; face=&quot;Comic Sans MS&quot;&gt;Backward4&lt;/font&gt;" style="rounded=1;whiteSpace=wrap;html=1;" parent="1" vertex="1">
          <mxGeometry x="965" y="1637" width="120" height="60" as="geometry" />
        </mxCell>
        <mxCell id="woXVaQnbZN-dzvyPOgUp-169" style="edgeStyle=orthogonalEdgeStyle;rounded=0;orthogonalLoop=1;jettySize=auto;html=1;exitX=0;exitY=0.5;exitDx=0;exitDy=0;" parent="1" source="woXVaQnbZN-dzvyPOgUp-171" target="woXVaQnbZN-dzvyPOgUp-173" edge="1">
          <mxGeometry relative="1" as="geometry" />
        </mxCell>
        <mxCell id="woXVaQnbZN-dzvyPOgUp-201" style="edgeStyle=orthogonalEdgeStyle;rounded=0;orthogonalLoop=1;jettySize=auto;html=1;exitX=0.5;exitY=0;exitDx=0;exitDy=0;entryX=0.5;entryY=1;entryDx=0;entryDy=0;" parent="1" source="woXVaQnbZN-dzvyPOgUp-171" target="woXVaQnbZN-dzvyPOgUp-178" edge="1">
          <mxGeometry relative="1" as="geometry" />
        </mxCell>
        <mxCell id="woXVaQnbZN-dzvyPOgUp-171" value="&lt;font style=&quot;font-size: 20px;&quot; face=&quot;Comic Sans MS&quot;&gt;Backward2&lt;/font&gt;" style="rounded=1;whiteSpace=wrap;html=1;" parent="1" vertex="1">
          <mxGeometry x="505" y="1637" width="120" height="60" as="geometry" />
        </mxCell>
        <mxCell id="woXVaQnbZN-dzvyPOgUp-199" style="edgeStyle=orthogonalEdgeStyle;rounded=0;orthogonalLoop=1;jettySize=auto;html=1;exitX=0.5;exitY=0;exitDx=0;exitDy=0;entryX=0.5;entryY=1;entryDx=0;entryDy=0;" parent="1" source="woXVaQnbZN-dzvyPOgUp-173" target="woXVaQnbZN-dzvyPOgUp-177" edge="1">
          <mxGeometry relative="1" as="geometry" />
        </mxCell>
        <mxCell id="woXVaQnbZN-dzvyPOgUp-173" value="&lt;font style=&quot;font-size: 20px;&quot; face=&quot;Comic Sans MS&quot;&gt;Backward1&lt;/font&gt;" style="rounded=1;whiteSpace=wrap;html=1;" parent="1" vertex="1">
          <mxGeometry x="355" y="1637" width="120" height="60" as="geometry" />
        </mxCell>
        <mxCell id="woXVaQnbZN-dzvyPOgUp-207" style="rounded=0;orthogonalLoop=1;jettySize=auto;html=1;exitX=0;exitY=0.25;exitDx=0;exitDy=0;entryX=1;entryY=0.5;entryDx=0;entryDy=0;" parent="1" source="woXVaQnbZN-dzvyPOgUp-174" target="woXVaQnbZN-dzvyPOgUp-168" edge="1">
          <mxGeometry relative="1" as="geometry" />
        </mxCell>
        <mxCell id="woXVaQnbZN-dzvyPOgUp-174" value="&lt;font style=&quot;font-size: 20px;&quot; face=&quot;Comic Sans MS&quot;&gt;loss&lt;br&gt;&lt;/font&gt;" style="rounded=1;whiteSpace=wrap;html=1;" parent="1" vertex="1">
          <mxGeometry x="1140" y="1710" width="120" height="60" as="geometry" />
        </mxCell>
        <mxCell id="woXVaQnbZN-dzvyPOgUp-177" value="&lt;font style=&quot;font-size: 15px;&quot;&gt;&lt;span style=&quot;font-size: 15px;&quot;&gt;W1.grad&lt;/span&gt;&lt;/font&gt;" style="rounded=1;whiteSpace=wrap;html=1;fontFamily=Comic Sans MS;fontSize=15;strokeColor=none;" parent="1" vertex="1">
          <mxGeometry x="355" y="1570" width="120" height="40" as="geometry" />
        </mxCell>
        <mxCell id="woXVaQnbZN-dzvyPOgUp-178" value="&lt;font style=&quot;font-size: 15px;&quot;&gt;&lt;span style=&quot;font-size: 15px;&quot;&gt;W2.grad&lt;/span&gt;&lt;/font&gt;" style="rounded=1;whiteSpace=wrap;html=1;fontFamily=Comic Sans MS;fontSize=15;strokeColor=none;" parent="1" vertex="1">
          <mxGeometry x="505" y="1570" width="120" height="40" as="geometry" />
        </mxCell>
        <mxCell id="woXVaQnbZN-dzvyPOgUp-179" value="&lt;font style=&quot;font-size: 15px;&quot;&gt;&lt;span style=&quot;font-size: 15px;&quot;&gt;W4.grad&lt;/span&gt;&lt;/font&gt;" style="rounded=1;whiteSpace=wrap;html=1;fontFamily=Comic Sans MS;fontSize=15;strokeColor=none;" parent="1" vertex="1">
          <mxGeometry x="965" y="1570" width="120" height="40" as="geometry" />
        </mxCell>
        <mxCell id="woXVaQnbZN-dzvyPOgUp-180" value="GPU3" style="text;html=1;strokeColor=none;fillColor=none;align=center;verticalAlign=middle;whiteSpace=wrap;rounded=0;fontFamily=Comic Sans MS;fontSize=20;" parent="1" vertex="1">
          <mxGeometry x="260" y="1580" width="60" height="30" as="geometry" />
        </mxCell>
        <mxCell id="woXVaQnbZN-dzvyPOgUp-181" style="edgeStyle=orthogonalEdgeStyle;rounded=0;orthogonalLoop=1;jettySize=auto;html=1;exitX=1;exitY=0.5;exitDx=0;exitDy=0;entryX=0;entryY=0.5;entryDx=0;entryDy=0;" parent="1" source="woXVaQnbZN-dzvyPOgUp-183" target="woXVaQnbZN-dzvyPOgUp-165" edge="1">
          <mxGeometry relative="1" as="geometry" />
        </mxCell>
        <mxCell id="woXVaQnbZN-dzvyPOgUp-202" style="edgeStyle=orthogonalEdgeStyle;rounded=0;orthogonalLoop=1;jettySize=auto;html=1;exitX=0.5;exitY=0;exitDx=0;exitDy=0;entryX=0.5;entryY=1;entryDx=0;entryDy=0;" parent="1" source="woXVaQnbZN-dzvyPOgUp-183" target="woXVaQnbZN-dzvyPOgUp-186" edge="1">
          <mxGeometry relative="1" as="geometry" />
        </mxCell>
        <mxCell id="woXVaQnbZN-dzvyPOgUp-183" value="&lt;font style=&quot;font-size: 20px;&quot; face=&quot;Comic Sans MS&quot;&gt;Forward2&lt;/font&gt;" style="rounded=1;whiteSpace=wrap;html=1;" parent="1" vertex="1">
          <mxGeometry x="815" y="1780" width="120" height="60" as="geometry" />
        </mxCell>
        <mxCell id="woXVaQnbZN-dzvyPOgUp-185" style="edgeStyle=orthogonalEdgeStyle;rounded=0;orthogonalLoop=1;jettySize=auto;html=1;exitX=0;exitY=0.5;exitDx=0;exitDy=0;entryX=1;entryY=0.5;entryDx=0;entryDy=0;" parent="1" source="woXVaQnbZN-dzvyPOgUp-186" target="woXVaQnbZN-dzvyPOgUp-171" edge="1">
          <mxGeometry relative="1" as="geometry" />
        </mxCell>
        <mxCell id="woXVaQnbZN-dzvyPOgUp-203" style="edgeStyle=orthogonalEdgeStyle;rounded=0;orthogonalLoop=1;jettySize=auto;html=1;exitX=0.5;exitY=0;exitDx=0;exitDy=0;entryX=0.5;entryY=1;entryDx=0;entryDy=0;" parent="1" source="woXVaQnbZN-dzvyPOgUp-186" target="woXVaQnbZN-dzvyPOgUp-187" edge="1">
          <mxGeometry relative="1" as="geometry" />
        </mxCell>
        <mxCell id="woXVaQnbZN-dzvyPOgUp-186" value="&lt;font style=&quot;font-size: 20px;&quot; face=&quot;Comic Sans MS&quot;&gt;Backward2&lt;/font&gt;" style="rounded=1;whiteSpace=wrap;html=1;" parent="1" vertex="1">
          <mxGeometry x="815" y="1637" width="120" height="60" as="geometry" />
        </mxCell>
        <mxCell id="woXVaQnbZN-dzvyPOgUp-187" value="&lt;font style=&quot;font-size: 15px;&quot;&gt;&lt;span style=&quot;font-size: 15px;&quot;&gt;W3.grad&lt;/span&gt;&lt;/font&gt;" style="rounded=1;whiteSpace=wrap;html=1;fontFamily=Comic Sans MS;fontSize=15;strokeColor=none;" parent="1" vertex="1">
          <mxGeometry x="815" y="1567" width="120" height="40" as="geometry" />
        </mxCell>
        <mxCell id="woXVaQnbZN-dzvyPOgUp-190" style="edgeStyle=orthogonalEdgeStyle;rounded=0;orthogonalLoop=1;jettySize=auto;html=1;exitX=1;exitY=0.5;exitDx=0;exitDy=0;entryX=0;entryY=0.5;entryDx=0;entryDy=0;" parent="1" source="woXVaQnbZN-dzvyPOgUp-191" target="woXVaQnbZN-dzvyPOgUp-161" edge="1">
          <mxGeometry relative="1" as="geometry" />
        </mxCell>
        <mxCell id="woXVaQnbZN-dzvyPOgUp-191" value="Input" style="text;html=1;strokeColor=none;fillColor=none;align=center;verticalAlign=middle;whiteSpace=wrap;rounded=0;fontFamily=Comic Sans MS;fontSize=20;" parent="1" vertex="1">
          <mxGeometry x="245" y="1795" width="60" height="30" as="geometry" />
        </mxCell>
        <mxCell id="woXVaQnbZN-dzvyPOgUp-192" style="edgeStyle=orthogonalEdgeStyle;rounded=0;orthogonalLoop=1;jettySize=auto;html=1;entryX=0.5;entryY=0;entryDx=0;entryDy=0;exitX=0.5;exitY=1;exitDx=0;exitDy=0;" parent="1" source="woXVaQnbZN-dzvyPOgUp-193" target="woXVaQnbZN-dzvyPOgUp-174" edge="1">
          <mxGeometry relative="1" as="geometry">
            <mxPoint x="1210" y="1627" as="sourcePoint" />
          </mxGeometry>
        </mxCell>
        <mxCell id="woXVaQnbZN-dzvyPOgUp-193" value="Target" style="text;html=1;strokeColor=none;fillColor=none;align=center;verticalAlign=middle;whiteSpace=wrap;rounded=0;fontFamily=Comic Sans MS;fontSize=20;" parent="1" vertex="1">
          <mxGeometry x="1170.5" y="1630" width="59" height="30" as="geometry" />
        </mxCell>
        <mxCell id="woXVaQnbZN-dzvyPOgUp-194" value="MPI Send" style="text;html=1;strokeColor=none;fillColor=none;align=center;verticalAlign=middle;whiteSpace=wrap;rounded=0;fontFamily=Comic Sans MS;fontSize=20;" parent="1" vertex="1">
          <mxGeometry x="655" y="1780" width="120" height="30" as="geometry" />
        </mxCell>
        <mxCell id="woXVaQnbZN-dzvyPOgUp-195" value="MPI Send" style="text;html=1;strokeColor=none;fillColor=none;align=center;verticalAlign=middle;whiteSpace=wrap;rounded=0;fontFamily=Comic Sans MS;fontSize=20;" parent="1" vertex="1">
          <mxGeometry x="665" y="1667" width="120" height="30" as="geometry" />
        </mxCell>
        <mxCell id="woXVaQnbZN-dzvyPOgUp-196" value="GPU4" style="text;html=1;strokeColor=none;fillColor=none;align=center;verticalAlign=middle;whiteSpace=wrap;rounded=0;fontFamily=Comic Sans MS;fontSize=20;" parent="1" vertex="1">
          <mxGeometry x="1190" y="1577" width="60" height="30" as="geometry" />
        </mxCell>
        <mxCell id="woXVaQnbZN-dzvyPOgUp-197" value="&lt;font style=&quot;font-size: 15px;&quot;&gt;&lt;span style=&quot;font-size: 15px;&quot;&gt;MPI.AllRedece&lt;/span&gt;&lt;/font&gt;" style="rounded=1;whiteSpace=wrap;html=1;fontFamily=Comic Sans MS;fontSize=15;strokeColor=none;" parent="1" vertex="1">
          <mxGeometry x="420" y="1450" width="120" height="40" as="geometry" />
        </mxCell>
        <mxCell id="woXVaQnbZN-dzvyPOgUp-208" value="" style="endArrow=classic;startArrow=classic;html=1;rounded=0;entryX=0.5;entryY=1;entryDx=0;entryDy=0;exitX=0.5;exitY=0;exitDx=0;exitDy=0;" parent="1" source="woXVaQnbZN-dzvyPOgUp-177" target="woXVaQnbZN-dzvyPOgUp-65" edge="1">
          <mxGeometry width="50" height="50" relative="1" as="geometry">
            <mxPoint x="660" y="1480" as="sourcePoint" />
            <mxPoint x="710" y="1430" as="targetPoint" />
          </mxGeometry>
        </mxCell>
        <mxCell id="woXVaQnbZN-dzvyPOgUp-209" value="" style="endArrow=classic;startArrow=classic;html=1;rounded=0;entryX=0.5;entryY=1;entryDx=0;entryDy=0;exitX=0.5;exitY=0;exitDx=0;exitDy=0;" parent="1" source="woXVaQnbZN-dzvyPOgUp-178" target="woXVaQnbZN-dzvyPOgUp-66" edge="1">
          <mxGeometry width="50" height="50" relative="1" as="geometry">
            <mxPoint x="425" y="1580" as="sourcePoint" />
            <mxPoint x="425" y="1377" as="targetPoint" />
          </mxGeometry>
        </mxCell>
        <mxCell id="woXVaQnbZN-dzvyPOgUp-210" value="" style="endArrow=classic;startArrow=classic;html=1;rounded=0;entryX=0.5;entryY=1;entryDx=0;entryDy=0;exitX=0.5;exitY=0;exitDx=0;exitDy=0;" parent="1" source="woXVaQnbZN-dzvyPOgUp-187" target="woXVaQnbZN-dzvyPOgUp-75" edge="1">
          <mxGeometry width="50" height="50" relative="1" as="geometry">
            <mxPoint x="435" y="1590" as="sourcePoint" />
            <mxPoint x="435" y="1387" as="targetPoint" />
          </mxGeometry>
        </mxCell>
        <mxCell id="woXVaQnbZN-dzvyPOgUp-211" value="" style="endArrow=classic;startArrow=classic;html=1;rounded=0;entryX=0.5;entryY=1;entryDx=0;entryDy=0;exitX=0.5;exitY=0;exitDx=0;exitDy=0;" parent="1" source="woXVaQnbZN-dzvyPOgUp-179" target="woXVaQnbZN-dzvyPOgUp-67" edge="1">
          <mxGeometry width="50" height="50" relative="1" as="geometry">
            <mxPoint x="445" y="1600" as="sourcePoint" />
            <mxPoint x="445" y="1397" as="targetPoint" />
          </mxGeometry>
        </mxCell>
        <mxCell id="woXVaQnbZN-dzvyPOgUp-215" value="Data parallel MPI.communicators" style="text;html=1;strokeColor=none;fillColor=none;align=center;verticalAlign=middle;whiteSpace=wrap;rounded=0;rotation=-90;fontSize=25;fontColor=#6c8ebf;" parent="1" vertex="1">
          <mxGeometry x="-180" y="1440" width="560" height="150" as="geometry" />
        </mxCell>
        <mxCell id="woXVaQnbZN-dzvyPOgUp-216" value="Pipeline parallel MPI.communicators" style="text;html=1;strokeColor=none;fillColor=none;align=center;verticalAlign=middle;whiteSpace=wrap;rounded=0;rotation=0;fontSize=25;fontColor=#d6b656;" parent="1" vertex="1">
          <mxGeometry x="480" y="850" width="560" height="150" as="geometry" />
        </mxCell>
        <mxCell id="NcJ_m5KxNfroG4PjKvaC-2" value="&lt;font style=&quot;font-size: 15px;&quot;&gt;&lt;span style=&quot;font-size: 15px;&quot;&gt;MPI.AllRedece&lt;/span&gt;&lt;/font&gt;" style="rounded=1;whiteSpace=wrap;html=1;fontFamily=Comic Sans MS;fontSize=15;strokeColor=none;" parent="1" vertex="1">
          <mxGeometry x="890" y="1460" width="120" height="40" as="geometry" />
        </mxCell>
      </root>
    </mxGraphModel>
  </diagram>
</mxfile>
